<svg xmlns="http://www.w3.org/2000/svg" version="1.1" xmlns:xlink="http://www.w3.org/1999/xlink" xmlns:svgjs="http://svgjs.dev/svgjs" width="1000" height="1000" viewBox="0 0 1000 1000"><rect width="1000" height="1000" fill="#ffffff"></rect><g transform="matrix(0.7,0,0,0.7,149.84897959183667,150.19913061224486)"><svg viewBox="0 0 343 343" data-background-color="#ffffff" preserveAspectRatio="xMidYMid meet" height="999" width="1000" xmlns="http://www.w3.org/2000/svg" xmlns:xlink="http://www.w3.org/1999/xlink"><g id="tight-bounds" transform="matrix(1,0,0,1,0.0740000000000407,0.07400000000001228)"><svg viewBox="0 0 342.85155851775386 342.85155851775386" height="342.85155851775386" width="342.85155851775386"><g><svg></svg></g><g><svg viewBox="0 0 342.85155851775386 342.85155851775386" height="342.85155851775386" width="342.85155851775386"><g><path d="M0 171.426c0-94.676 76.75-171.426 171.426-171.426 94.676 0 171.426 76.75 171.426 171.426 0 94.676-76.75 171.426-171.426 171.426-94.676 0-171.426-76.75-171.426-171.426zM171.426 325.641c85.171 0 154.215-69.045 154.215-154.215 0-85.171-69.045-154.215-154.215-154.215-85.171 0-154.215 69.045-154.215 154.215 0 85.171 69.045 154.215 154.215 154.215z" data-fill-palette-color="tertiary" fill="#ff0033" stroke="transparent"></path><ellipse rx="164.56874808852186" ry="164.56874808852186" cx="171.42577925887693" cy="171.42577925887693" fill="#ff0033" stroke="transparent" stroke-width="0" fill-opacity="1" data-fill-palette-color="tertiary"></ellipse></g><g transform="matrix(1,0,0,1,64.84655864529837,76.00378185585807)"><svg viewBox="0 0 213.1584412271571 190.84399480603773" height="190.84399480603773" width="213.1584412271571"><g><svg viewBox="0 0 213.1584412271571 190.84399480603773" height="190.84399480603773" width="213.1584412271571"><g><svg viewBox="0 0 213.1584412271571 190.84399480603773" height="190.84399480603773" width="213.1584412271571"><g><svg viewBox="0 0 213.1584412271571 190.84399480603773" height="190.84399480603773" width="213.1584412271571"><g id="textblocktransform"><svg viewBox="0 0 213.1584412271571 190.84399480603773" height="190.84399480603773" width="213.1584412271571" id="textblock"><g><svg viewBox="0 0 213.1584412271571 190.84399480603773" height="190.84399480603773" width="213.1584412271571"><g transform="matrix(1,0,0,1,0,0)"><svg width="213.1584412271571" viewBox="-1.1700000762939453 -36.90999984741211 42.209999084472656 37.790000915527344" height="190.84399480603773" data-palette-color="#ffffff"><path d="M-1.17 0L-1.17 0Q0.34-5.59 2.17-11.35 4-17.11 6.73-25.13 9.45-33.15 10.45-36.23L10.45-36.23Q10.74-36.72 10.84-36.82L10.84-36.82 14.94-36.82Q16.38-36.82 19.19-36.87 22-36.91 23.44-36.91L23.44-36.91 27.54-36.91Q27.91-36.91 28.15-36.9 28.39-36.89 28.74-36.84 29.08-36.79 29.28-36.69 29.49-36.6 29.64-36.4 29.79-36.21 29.79-35.94L29.79-35.94 41.04-0.27Q41.04 0.22 40.69 0.4 40.33 0.59 39.36 0.59L39.36 0.59 37.11 0.59Q36.13 0.59 34.2 0.61 32.28 0.63 31.3 0.63L31.3 0.63Q31.01 0.63 30.11 0.67 29.22 0.71 28.61 0.7 28 0.68 27.26 0.62 26.51 0.56 26.06 0.35 25.61 0.15 25.49-0.2L25.49-0.2 25.49-1.81Q25.24-3.03 24.63-4.05 24.02-5.08 23.34-5.08L23.34-5.08 14.94-5.08 13.67 0.1Q13.4 0.68 10.94 0.68L10.94 0.68 8.98 0.68Q7.93 0.68 5.86 0.76 3.78 0.83 2.73 0.83L2.73 0.83 2.05 0.83Q1.66 0.83 0.82 0.85-0.02 0.88-0.49 0.88L-0.49 0.88Q-0.68 0.68-1.17 0ZM17.72-23.29L15.77-14.82 16.46-13.67 18.07-13.67Q20.02-13.67 21.64-13.9 23.27-14.14 23.27-14.65L23.27-14.65 20.12-28.71Q19.68-28.71 18.93-27.05 18.19-25.39 17.72-23.29L17.72-23.29Z" opacity="1" transform="matrix(1,0,0,1,0,0)" fill="#ffffff" class="wordmark-text-0" data-fill-palette-color="quaternary" id="text-0"></path></svg></g></svg></g></svg></g></svg></g><g></g></svg></g></svg></g></svg></g></svg></g><defs></defs></svg><rect width="342.85155851775386" height="342.85155851775386" fill="none" stroke="none" visibility="hidden"></rect></g></svg></g></svg>